<?xml version="1.0" encoding="utf-8"?>
<!-- Generator: Adobe Illustrator 16.0.0, SVG Export Plug-In . SVG Version: 6.00 Build 0)  -->
<!DOCTYPE svg PUBLIC "-//W3C//DTD SVG 1.1//EN" "http://www.w3.org/Graphics/SVG/1.1/DTD/svg11.dtd">
<svg version="1.1" id="Calque_1" xmlns="http://www.w3.org/2000/svg" xmlns:xlink="http://www.w3.org/1999/xlink" x="0px" y="0px"
	 width="162.801px" height="162.8px" viewBox="47.217 38.651 162.801 162.8" enable-background="new 47.217 38.651 162.801 162.8"
	 xml:space="preserve">
<g>
	<path fill="#FFFFFF" d="M210.018,120.044c0,44.964-36.448,81.406-81.406,81.406c-44.949,0-81.395-36.442-81.395-81.406
		c0-44.955,36.444-81.394,81.395-81.394C173.57,38.651,210.018,75.089,210.018,120.044z"/>
	<path fill="#231F20" d="M164.203,68.764c-8.267,0.288-15.488,4.847-20.857,11.149c-5.953,6.913-9.907,15.115-12.762,23.482
		c-5.098-4.182-9.034-9.59-17.219-11.951c-6.33-1.818-12.972-1.07-19.078,3.482c-2.898,2.163-4.89,5.432-5.841,8.501
		c-2.458,7.984,2.58,15.092,4.87,17.646l5.002,5.351c1.033,1.055,3.514,3.797,2.306,7.727c-1.314,4.276-6.464,7.039-11.751,5.413
		c-2.359-0.729-5.751-2.484-4.99-4.954c0.312-1.014,1.037-1.777,1.427-2.646c0.357-0.753,0.527-1.317,0.635-1.647
		c0.968-3.154-0.354-7.254-3.727-8.298c-3.155-0.961-6.371-0.197-7.622,3.854c-1.422,4.611,0.786,12.967,12.595,16.612
		c13.842,4.255,25.544-3.283,27.205-13.107c1.044-6.153-1.735-10.729-6.824-16.61l-4.147-4.584
		c-2.516-2.516-3.376-6.79-0.777-10.076c2.195-2.773,5.318-3.957,10.439-2.566c7.473,2.022,10.804,7.214,16.358,11.395
		c-2.293,7.524-3.795,15.079-5.149,21.859l-0.83,5.045c-3.976,20.834-7.005,32.275-14.889,38.844
		c-1.586,1.134-3.857,2.82-7.276,2.939c-1.797,0.058-2.373-1.179-2.403-1.714c-0.039-1.259,1.027-1.837,1.729-2.404
		c1.053-0.576,2.645-1.527,2.537-4.573c-0.117-3.615-3.104-6.74-7.418-6.594c-3.24,0.106-8.167,3.15-7.98,8.729
		c0.191,5.753,5.555,10.068,13.645,9.791c4.324-0.141,13.981-1.901,23.497-13.213c11.072-12.969,14.176-27.836,16.503-38.713
		l2.599-14.364c1.447,0.172,2.99,0.289,4.673,0.328c13.796,0.295,20.693-6.852,20.802-12.049c0.067-3.146-2.067-6.24-5.052-6.17
		c-2.135,0.063-4.819,1.48-5.462,4.436c-0.633,2.899,4.389,5.517,0.467,8.06c-2.787,1.806-7.785,3.075-14.82,2.045l1.283-7.074
		c2.606-13.408,5.829-29.899,18.046-30.299c0.889-0.047,4.148,0.039,4.226,2.191c0.019,0.719-0.159,0.905-0.997,2.55
		c-0.861,1.284-1.185,2.378-1.146,3.635c0.119,3.421,2.723,5.671,6.49,5.539c5.034-0.164,6.483-5.067,6.405-7.593
		C178.709,72.237,172.465,68.496,164.203,68.764z"/>
</g>
</svg>
